<svg xmlns="http://www.w3.org/2000/svg" xmlns:xlink="http://www.w3.org/1999/xlink" viewBox="0 0 234.52188 173.35348"><defs><linearGradient id="linear-gradient" x1="595.89197" y1="-306.25595" x2="617.36586" y2="-310.55072" gradientTransform="matrix(0, 1, 1, 0, 528.81327, -528.81327)" gradientUnits="userSpaceOnUse"><stop offset="0" stop-color="#5cba47"/><stop offset="1" stop-color="#32763a"/></linearGradient><linearGradient id="linear-gradient-2" x1="561.59887" y1="-330.85908" x2="581.12066" y2="-322.65993" xlink:href="#linear-gradient"/><linearGradient id="linear-gradient-3" x1="563.25013" y1="-365.83528" x2="574.57264" y2="-346.31368" xlink:href="#linear-gradient"/><linearGradient id="linear-gradient-4" x1="662.10098" y1="-404.33714" x2="663.27227" y2="-388.71984" xlink:href="#linear-gradient"/><linearGradient id="linear-gradient-5" x1="679.45913" y1="-381.4363" x2="676.33565" y2="-367.77106" xlink:href="#linear-gradient"/><linearGradient id="linear-gradient-6" x1="694.88574" y1="-352.5281" x2="679.26846" y2="-334.56824" xlink:href="#linear-gradient"/><linearGradient id="linear-gradient-7" x1="671.63538" y1="-339.23053" x2="676.1033" y2="-339.23053" xlink:href="#linear-gradient"/><linearGradient id="linear-gradient-9" x1="638.36698" y1="-302.66472" x2="650.86093" y2="-308.52125" xlink:href="#linear-gradient"/><linearGradient id="linear-gradient-10" x1="571.10545" y1="-330.29998" x2="550.8031" y2="-345.39676" gradientTransform="matrix(0, 1, 1, 0, 528.81327, -528.81327)" gradientUnits="userSpaceOnUse"><stop offset="0" stop-color="#54ac47"/><stop offset="1" stop-color="#2e6a34"/></linearGradient><linearGradient id="linear-gradient-11" x1="590.90591" y1="-310.2901" x2="571.12368" y2="-311.33138" xlink:href="#linear-gradient-10"/><linearGradient id="linear-gradient-12" x1="620.56361" y1="-303.97266" x2="599.21992" y2="-298.76695" xlink:href="#linear-gradient-10"/><linearGradient id="linear-gradient-13" x1="600.27712" y1="-443.9587" x2="600.27712" y2="-482.48151" xlink:href="#linear-gradient-10"/><linearGradient id="linear-gradient-14" x1="653.76594" y1="-404.60439" x2="652.20419" y2="-415.01577" xlink:href="#linear-gradient-10"/><linearGradient id="linear-gradient-15" x1="673.5808" y1="-387.20195" x2="676.70428" y2="-397.61365" xlink:href="#linear-gradient-10"/><linearGradient id="linear-gradient-16" x1="680.51262" y1="-356.71758" x2="686.75955" y2="-368.17055" xlink:href="#linear-gradient-10"/><radialGradient id="radial-gradient" cx="600.39305" cy="-433.67696" r="28.8632" gradientTransform="matrix(0, 1, 1, 0, 528.81327, -528.81327)" gradientUnits="userSpaceOnUse"><stop offset="0" stop-color="#a9cf38"/><stop offset="1" stop-color="#61b246"/></radialGradient><radialGradient id="radial-gradient-2" cx="600.39305" cy="-433.67696" r="28.86328" xlink:href="#radial-gradient"/><radialGradient id="radial-gradient-3" cx="600.39305" cy="-433.67696" r="28.86312" xlink:href="#radial-gradient"/></defs><title>feather</title><g id="Layer_2" data-name="Layer 2"><g id="Feather"><path d="M217.73315,88.759a92.70741,92.70741,0,0,0,5.85653-44.90012c2.34262,7.41828,2.34262,22.25484.39044,33.96791s-8.58959,31.6253-8.58959,31.6253S208.36269,111.79466,217.73315,88.759Z" style="fill:url(#linear-gradient)"/><path d="M215.39053,71.57977l-1.95218,11.71308-1.95218-1.56175s-2.733-4.68523-.78087-16.00787-1.95218-18.35048-7.02784-28.89224-9.7609-26.1592-9.7609-26.1592S203.287,33.7075,209.534,44.24927,215.39053,71.57977,215.39053,71.57977Z" style="fill:url(#linear-gradient-2)"/><path d="M199.7731,54.01016l2.733,5.07567-8.58959-1.95218s-7.02784-6.63741-8.98-9.7609-13.66525-9.37046-24.98789-12.10351a43.97444,43.97444,0,0,1-18.35048-9.37045c7.41828,6.6374,21.474,5.85653,37.0914,13.27481S199.7731,54.01016,199.7731,54.01016Z" style="fill:url(#linear-gradient-3)"/><path d="M155.26342,133.65906l4.2948,5.07567-4.68523.78087a94.329,94.329,0,0,0-16.39831-3.12349c-8.58958-.78087-21.8644-1.56174-30.84442-4.29479,0,0,26.94007,3.90436,35.13922.39043S155.26342,133.65906,155.26342,133.65906Z" style="fill:url(#linear-gradient-4)"/><path d="M186.81055,147.29a48.35266,48.35266,0,0,1-7.34011.03429c-20.30266-1.1713-53.4897,6.63741-53.4897,6.63741s12.49394-3.90436,23.03571-6.247,25.76876-1.56174,25.76876-1.56174l5.07567-8.58959,10.15133,3.12349a8.88934,8.88934,0,0,1,1.869,2.1352A8.69823,8.69823,0,0,0,186.81055,147.29Z" style="fill:url(#linear-gradient-5)"/><path d="M163.46257,168.40785s19.52179-10.93221,22.64528-19.52179a12.99806,12.99806,0,0,1,.7027-1.596c6.00295-.58948,6.05137-2.77084,5.07067-4.46791a10.46348,10.46348,0,0,1,5.54927-.183l7.02784,1.17131,2.73305,5.07567s-10.15133-.78087-16.78874,3.51392S172.4426,165.6748,163.46257,168.40785Z" style="fill:url(#linear-gradient-6)"/><path d="M186.81055,147.29a8.69823,8.69823,0,0,1,5.07067-4.46791C192.86192,144.51918,192.8135,146.70054,186.81055,147.29Z" style="fill:url(#linear-gradient-7)"/><path d="M186.81055,147.29a8.69823,8.69823,0,0,1,5.07067-4.46791C192.86192,144.51918,192.8135,146.70054,186.81055,147.29Z" style="fill:url(#linear-gradient-7)"/><path d="M224.761,108.67117a96.59851,96.59851,0,0,0,9.76089-18.74092s-3.51392,10.93221-8.19915,18.74092-9.76089,18.35048-10.54176,27.72094l.39043-8.19915S220.4662,115.30858,224.761,108.67117Z" style="fill:url(#linear-gradient-9)"/><path d="M228.01449,168.66825s-8.85-12.49354-10.9322-24.467,2.603-31.75531,7.28826-40.60532,13.014-32.27655,5.72614-52.05837c0,0,3.12348,18.74092-2.0822,32.27617s-9.37085,17.17955-11.97349,30.7144c0,0,0-16.13828,3.12348-30.194s5.20607-46.8523-4.16438-62.46973a84.62113,84.62113,0,0,1,2.60264,31.75571c-2.08219,16.65833-3.64355,19.26175-4.16439,26.54963,0,0,1.0409-19.26176-8.32955-33.83789S176.477,11.9731,171.79174,0a97.29079,97.29079,0,0,0,14.57614,26.54963c10.41175,13.53525,11.45265,20.8235,14.05569,29.15268a49.45165,49.45165,0,0,0-35.92009-16.13789c-23.42615-.52084-54.14056.52084-64.03147-3.12349a82.25868,82.25868,0,0,0,26.54963,6.76744s-24.98789,2.08218-35.92009,4.68522-24.467,1.56175-24.467,1.56175,22.90531,2.603,33.83751,1.56174c0,0-18.22047,3.64433-26.54963,4.16477S37.48222,64.55193,27.59092,68.7167c0,0,21.344-6.247,34.35835-8.32916a92.074,92.074,0,0,1,22.38486-1.0413s-11.9735,6.24737-31.23486,11.453S11.45265,83.29323,0,94.22543A113.43414,113.43414,0,0,1,37.48183,78.608c21.86441-4.68523,34.87919-7.8091,43.20836-3.64433a29.48742,29.48742,0,0,0-13.01479,2.603c-7.28787,3.12349-29.15227,9.37046-29.15227,9.37046s15.61743-3.12388,27.07008-5.72653,19.78221.0004,26.02918,5.20607a39.66673,39.66673,0,0,0-13.53524.52046c-7.80871,1.56175-22.38485,3.12349-22.38485,3.12349s19.26137-1.0409,28.63183,1.04128,16.13827,5.72613,21.34395,11.45266,16.65872,17.7,26.54963,22.90569c0,0-16.13827-1.0409-21.344-3.12349S92.66329,115.569,92.66329,115.569s18.74092,8.8504,32.79661,13.01478,23.947,7.80872,29.15267,10.93221a76.15953,76.15953,0,0,0-19.78221,4.16438c-9.89091,3.64433-36.44055,9.37046-36.44055,9.37046s22.9057-4.16438,33.8379-5.72613,24.46744-2.60264,29.67312-1.56174,17.69963,1.56174,17.69963,1.56174a142.75536,142.75536,0,0,0-16.65873,9.37046c-6.76742,4.68523-30.714,11.9731-30.714,11.9731s21.34356-5.20566,35.39925-11.45264,27.59054-8.32917,34.35835-7.80871,10.41214,2.603,13.01479,5.72651,10.41136,14.57575,13.01439,18.22007Z" style="fill:#54ac47"/><path d="M186.36788,26.54963A97.29079,97.29079,0,0,1,171.79174,0c4.54295,11.61015,22.79091,30.56269,32.437,44.99124l-6.05253,3.20431C196.32243,42.36837,193.61685,35.9735,186.36788,26.54963Z" style="fill:url(#linear-gradient-10)"/><path d="M217.60274,53.62011A84.62113,84.62113,0,0,0,215.0001,21.8644c7.51854,12.531,7.66152,36.11493,5.81187,52.21048l-5.65859-4.78775C215.83282,65.7739,216.66476,61.12569,217.60274,53.62011Z" style="fill:url(#linear-gradient-11)"/><path d="M228.01449,83.81369c5.20568-13.53525,2.0822-32.27617,2.0822-32.27617,7.28787,19.78182-1.04091,43.20837-5.72614,52.05837-.36341.6863-.72636,1.44508-1.08627,2.25414l-3.66916-3.45333C221.92572,96.85056,224.76786,92.25569,228.01449,83.81369Z" style="fill:url(#linear-gradient-12)"/><path d="M99.40214,51.10476,99.0883,46.3997c-3.01752.46861-5.78828.97039-7.98675,1.49389-10.9322,2.603-24.467,1.56175-24.467,1.56175S88.11682,51.89672,99.40214,51.10476ZM98.40543,96.528l-1.57736-9.07037L86.93716,77.04625,82.77238,64.03147,99.43111,51.53752l-.02062-.31149c-3.99626.77853-18.35962,3.51049-25.48811,3.95582-8.32917.52046-36.44016,9.37008-46.33146,13.53485,0,0,21.344-6.247,34.35835-8.32916a92.074,92.074,0,0,1,22.38486-1.0413s-11.9735,6.24737-31.23486,11.453S11.45265,83.29323,0,94.22543A113.43414,113.43414,0,0,1,37.48183,78.608c21.86441-4.68523,34.87919-7.8091,43.20836-3.64433a29.48742,29.48742,0,0,0-13.01479,2.603c-7.28787,3.12349-29.15227,9.37046-29.15227,9.37046s15.61743-3.12388,27.07008-5.72653,19.78221.0004,26.02918,5.20607a39.66673,39.66673,0,0,0-13.53524.52046c-7.80871,1.56175-22.38485,3.12349-22.38485,3.12349s19.26137-1.0409,28.63183,1.04128A45.10536,45.10536,0,0,1,98.40543,96.528Z" style="fill:url(#linear-gradient-13)"/><path d="M133.15687,130.94661q-3.61231-1.15245-7.697-2.36284C111.40421,124.41939,92.66329,115.569,92.66329,115.569s13.01479,4.68523,18.22047,6.76781c4.84,1.93618,19.12329,2.97137,21.1068,3.10749l2.8398,1.57774S134.09329,128.98561,133.15687,130.94661Z" style="fill:url(#linear-gradient-14)"/><path d="M132.22771,147.32469c-10.9322,1.56175-33.8379,5.72613-33.8379,5.72613s26.54964-5.72613,36.44055-9.37046a72.38346,72.38346,0,0,1,12.94575-3.34275l7.51394,5.00937A189.24771,189.24771,0,0,0,132.22771,147.32469Z" style="fill:url(#linear-gradient-15)"/><path d="M167.627,157.21561c-14.05569,6.247-35.39925,11.45264-35.39925,11.45264s23.9466-7.28787,30.714-11.9731a106.65,106.65,0,0,1,9.5763-5.75167c1.802.73277,3.74389,1.60751,5.37731,2.36925A100.59126,100.59126,0,0,0,167.627,157.21561Z" style="fill:url(#linear-gradient-16)"/><path d="M95.17177,71.58242c4.43886,1.2472,8.75466,2.81043,13.05671,4.40388l-.002.02288c-3.81245-.79313-7.5921-1.7116-11.36605-2.67777-7.76257-1.98732-15.2434-3.80409-23.02509-4.41831.75651-.19984,1.51294-.39545,2.27132-.57.90557-.19866,1.80811-.35882,2.70947-.50141C84.33717,68.81509,89.81585,70.07752,95.17177,71.58242Z" style="fill:url(#radial-gradient)"/><path d="M94.31726,69.34311c-3.29887-.82507-6.59274-1.52011-9.89849-2.06462,8.32878-.34281,16.48943,1.39128,24.56693,3.94933-.19561.71989-.34281,1.42829-.46095,2.128C103.7911,71.794,98.95829,70.50419,94.31726,69.34311Z" style="fill:url(#radial-gradient-2)"/><path d="M100.49372,85.80318c1.35778.30087,2.73078.55864,4.12893.74776,1.824.24668,3.71522.51093,5.64.755a17.75865,17.75865,0,0,0,.88153,1.84349A40.49214,40.49214,0,0,1,100.49372,85.80318Z" style="fill:url(#radial-gradient-3)"/><path d="M109.39714,84.91556c-2.37354-.20474-4.74091-.47047-7.09118-.838A96.81262,96.81262,0,0,1,91.02682,81.2026c-.19375-.08613-.39122-.17539-.57574-.25237-1.31772-.549-2.8829-1.09807-4.4519-1.60408a64.99049,64.99049,0,0,0,12.272,1.38215,94.895,94.895,0,0,0,10.10253-.60284A26.65965,26.65965,0,0,0,109.39714,84.91556Z" style="fill:url(#radial-gradient-2)"/><path d="M105.03784,79.1254a42.44139,42.44139,0,0,1-5.56254.52693c-7.05072.13189-13.9619-1.12749-20.82272-2.62207,1.63226-.05608,5.65367-.32829,6.343-1.65062a102.88935,102.88935,0,0,0,11.64481,2.48481C99.3285,78.27589,102.15994,78.74028,105.03784,79.1254Z" style="fill:url(#radial-gradient)"/><path d="M95.77725,75.5501c-3.95433-.60509-7.88688-1.35551-11.79967-2.20229-3.02353-2.51152-9.05132-3.5685-11.89189-3.93872.12244-.03849.2448-.07246.36755-.1094,9.44863.9597,18.36,3.62411,27.6142,6.38878q1.22623.366,2.45967.7245C100.27336,76.17347,98.02334,75.89361,95.77725,75.5501Z" style="fill:url(#radial-gradient)"/><path d="M83.33133,67.10919q-3.32921-.513-6.68317-.80219c.15173-.07512.30158-.14914.45525-.22535a67.49941,67.49941,0,0,1,18.29676-1.18584,46.3134,46.3134,0,0,1,14.4968,3.665c-.22231.54216-.42815,1.082-.60166,1.61742a93.00341,93.00341,0,0,0-12.7578-2.86768A51.32816,51.32816,0,0,0,83.33133,67.10919Z" style="fill:url(#radial-gradient-2)"/><path d="M78.63923,67.81q-1.26852.24129-2.53252.533c-.76408.16733-1.53.35911-2.29725.56769-.75182-.05873-1.50606-.10824-2.26367-.14377.77557-.36443,1.94461-.91846,3.29473-1.57392Q76.74273,67.47676,78.63923,67.81Z" style="fill:url(#radial-gradient-3)"/><path d="M82.48221,63.28457c.4091-.22615.80374-.44846,1.17475-.66351a75.75346,75.75346,0,0,1,16.72275-.18562A64.70051,64.70051,0,0,1,111.83658,64.804a24.36654,24.36654,0,0,0-1.36465,2.46576A47.73674,47.73674,0,0,0,82.48221,63.28457Z" style="fill:url(#radial-gradient)"/><path d="M84.50186,62.119c.16742-.10183.32984-.20247.48312-.30008,4.2948-2.733,22.64528-1.17131,22.64528-1.17131l5.4661,2.34261c-.18805.24823-.36531.49639-.54029.74463A76.22122,76.22122,0,0,0,84.50186,62.119Z" style="fill:url(#radial-gradient-3)"/><path d="M98.16977,86.97605a7.93312,7.93312,0,0,0,2.62286,1.6296A21.81351,21.81351,0,0,0,98.16977,86.97605Zm117.37552,64.15461c-2.14856-5.05622-2.126-12.03908-1.84652-17.59436.27487-5.46845,2.38338-10.22419,3.13528-15.53357-2.857,5.1992-4.17618-3.10521-4.713-8.28536.85061-2.72344,1.1724-5.54309,2.32653-8.14535-2.07032-1.01693-1.829-4.37522-2.31052-6.30569a9.67222,9.67222,0,0,0-.38434-1.18615A38.85983,38.85983,0,0,0,207.387,71.905c-1.93586-3.48877-4.74248-7.37673-7.991-9.76049-1.62695-1.1942-3.99175-2.82153-5.99991-3.06477-2.16075-.2616-4.28261.49187-6.50739-.05263-5.16532-1.26431-9.92261-4.74474-14.90293-6.65077-6.57792-2.518-12.80928-4.86787-19.78715-5.8424-5.91149-.82546-10.84106-.92845-16.33277,1.29523a136.69308,136.69308,0,0,1-13.78949,4.95252c-5.29681,1.51669-10.69052,3.48722-16.0594,4.48119,3.435-.39153,6.92188,1.63116,10.01482,2.92867,5.50391,2.30872,10.24481,5.70285,15.924,7.9399,17.44077,6.87033,34.46478,14.774,51.46967,22.75467-3.26116.73855-6.50927,1.49615-9.74754,2.05018-12.88743,2.20463-27.31637.33023-39.88848-2.876l-16.39831,3.90436c-3.66642-.374-7.57275-1.96593-10.99022-3.31871-1.426-.56465-3.72585-1.2205-5.6083-2.04026,7.01379,5.01468,11.07784,13.788,16.136,20.456,3.26873,4.3093,6.505,8.67422,10.9322,11.901,3.03119,2.20995,10.05294,3.6398,11.2109,6.90394.13915.39308-1.06761.57081-.82437,1.2304.278.7523,1.24112.82242,1.78906,1.23729,1.16061.87888,2.45279,1.55675,3.65,2.35707a27.36567,27.36567,0,0,0,7.02175,3.64362c2.02652.6329,4.35921.66452,6.247,1.67684,1.89,1.0135,3.311,4.14916.07887,4.36609,2.62973.12775,5.08831,1.16748,7.787,1.30249a58.90187,58.90187,0,0,0,9.90543.01336c3.39039-.43846,14.60433-4.75918,14.03624,2.04213,1.46523-1.15795,2.25493-3.60161,3.39648-5.19232.01984-.02741.04114-.0549.061-.08239,1.47061.21662,2.648.519,2.73688,2.43835a4.349,4.349,0,0,1-2.1196,3.38883C200.47924,144.31061,209.65175,145.45794,215.54529,151.13066Z" style="fill:#438e42"/><path d="M178.81958,43.72881c.12807.04959.2512.10331.37818.15406C178.961,43.78222,178.81958,43.72881,178.81958,43.72881Zm-21.8644-2.603c.08652.0103.16968.02287.25581.03358C157.04629,41.13647,156.95518,41.12578,156.95518,41.12578Zm.25581.03358c2.99121.4133,31.81216,5.06339,37.48645,31.46169l1.30132,5.4661,4.68523,1.30134S196.79329,45.959,157.211,41.15936Zm-31.23025-.294s40.08487.78087,55.7023,20.30266c0,0,2.34261,7.54831,3.12349,7.80872s8.84961,1.30171,8.84961,1.30171S180.38133,40.86535,125.98074,40.86535Zm53.88014,19.26176S157.21521,43.4684,129.62468,45.811,96.0472,49.71537,96.0472,49.71537s24.207-2.08221,32.27615-2.08221c6.8566,0,18.39968.01484,26.66817,3.84791-4.9106-.162-21.23033-.44987-31.093,2.39907-11.71308,3.38351-41.3862,3.64394-41.3862,3.64394s17.17918,1.04091,23.16573.52044,21.08314-3.12348,26.28921-1.30131a48.57214,48.57214,0,0,0,11.9735,2.08219l11.90446-6.944a20.2331,20.2331,0,0,1,3.19252,1.99872c8.06874,6.247,13.79526,8.06874,13.79526,8.06874Zm-49.45533,56.48278c-9.37046-2.08258-15.61743-9.37046-22.64528-16.13787A43.34177,43.34177,0,0,0,91.362,91.10156c11.19223,4.16477,24.98789,19.7822,30.71441,24.72746s24.72747,11.453,24.72747,11.453l-16.65833-15.3574s-15.3574-11.71307-19.78221-16.3983S92.66368,84.07372,92.66368,84.07372c8.06914,4.42479,20.30266,15.357,24.72747,20.30266A171.43254,171.43254,0,0,0,130.40555,116.60989Zm4.16478,8.58959c13.53484,5.4661,22.38524,5.98694,22.38524,5.98694s-4.16478-3.3839-8.85-3.12349S134.57033,125.19948,134.57033,125.19948Zm-3.90436,2.08258c19.78182,7.54869,32.7966,7.80872,32.7966,7.80872l2.603-1.82215a31.95928,31.95928,0,0,0-11.45265-1.30134C148.6264,132.48813,130.666,127.28206,130.666,127.28206Zm47.37274,14.05569c9.2702-2.7956,15.04474-7.00457,18.315-10.13649a21.15612,21.15612,0,0,1-4.77979,9.09521,41.81516,41.81516,0,0,0,11.19262-16.91877l-2.603-4.16476s-1.97506,2.42686-3.10366,8.26965l-6.78725,1.10081-4.94565,2.863s-3.90436,3.38392-4.94565,5.4661-11.45266,4.94566-25.24792,5.4661-15.097,2.08259-15.097,2.08259C151.48908,141.07772,161.64041,146.283,178.03871,141.33775Zm-27.851-5.98694s9.63088,2.34261,13.27481,3.38392,14.05569-1.56175,14.05569-1.56175l-.52045-3.38392a16.17,16.17,0,0,0-7.54868,2.34262C165.54477,138.47429,150.18776,135.35081,150.18776,135.35081Zm55.5818-18.37828a13.18682,13.18682,0,0,0-1.96209,5.10386s6.247-5.20607,9.37046-15.87786c0,0-3.12348,6.507-5.98655,9.11005-.08738.07932-.16547.164-.24863.24588,1.34935-3.54515,3.42967-9.428,5.71473-17.42506A219.62718,219.62718,0,0,0,218.644,68.7167s-2.08219,12.49394-5.20568,19.52178a96.43753,96.43753,0,0,0-3.53532,9.7003c.98757-12.76545.67718-33.08716-7.91733-51.08649,0,0,9.10965,24.98751,4.16439,43.98884,0,0,1.54339-35.59829-26.95233-46.95826,2.82113,1.19794,21.06643,10.01366,22.2671,38.10864l5.905,24.98063Z" style="fill:#347539"/><path d="M113.77689,67.13551c5.92713-9.55732,21.8202-14.14034,32.52861-15.16484a56.77969,56.77969,0,0,1,17.8041,1.2647c24.6878,5.926,46.41,27.04072,44.81321,55.99856-.38708,7.02441-5.77689,15.56215-11.02263,20.31141-14.896,13.48721-37.21034,8.35439-52.5197-2.9149-14.49573-10.671-34.03085-28.79918-34.62182-48.29395A19.75473,19.75473,0,0,1,113.77689,67.13551Z" style="fill:#276a35"/><path d="M117.70686,68.8204c5.72613-8.88125,20.52685-13.2546,30.49288-14.3062a53.2786,53.2786,0,0,1,16.6171.99437c23.25685,5.29071,44.03842,25.10463,42.53157,53.036-.37021,6.86161-5.64563,15.22091-10.78923,19.86912-14.63407,13.226-36.22087,7.94826-50.69144-3.178-13.50587-10.37708-31.308-27.679-31.27219-45.98295A19.00976,19.00976,0,0,1,117.70686,68.8204Z" style="fill:#8aab3e"/><path d="M121.63636,70.50529c5.5252-8.20525,19.23349-12.36886,28.45754-13.44716a49.79606,49.79606,0,0,1,15.43064.72371c21.82513,4.65509,41.66684,23.16839,40.24917,50.07378-.353,6.69839-5.51413,14.87888-10.55543,19.42644-14.37258,12.96481-35.23191,7.54221-48.86359-3.44075-12.51573-10.08379-28.58458-26.55915-27.92225-43.67195A18.33807,18.33807,0,0,1,121.63636,70.50529Z" style="fill:#f7e60b"/><path d="M133.60486,75.213c3.33814-3.97261,8.399-6.39829,13.59513-8.40155,8.82213-3.4007,18.92012-4.46409,27.97566-1.47865,23.68656,7.80871,26.54963,23.42615,28.63182,33.83789s-3.38351,21.08315-10.41136,27.07009-23.27256,11.75382-39.93127-.21959a61.84134,61.84134,0,0,1-18.11364-20.08307c-3.52041-6.45212-6.69691-15.4291-5.37388-22.89235A16.34646,16.34646,0,0,1,133.60486,75.213Z" style="fill:#86171b"/><path d="M134.90618,76.01371c3.26-3.87992,8.2022-6.24885,13.27677-8.20525,8.61551-3.321,18.47784-4.35921,27.32137-1.44391,23.13175,7.62607,25.92813,22.87782,27.96191,33.04594,2.03339,10.16812-3.305,20.59018-10.16812,26.4368-6.86354,5.84662-22.728,11.479-38.99672-.21427a60.396,60.396,0,0,1-17.68972-19.61331c-3.4384-6.30109-6.54018-15.0684-5.248-22.35666A15.96008,15.96008,0,0,1,134.90618,76.01371Z" style="fill:#a41e24"/><path d="M136.2075,76.814c3.1819-3.78651,8.0055-6.09861,12.9588-8.00807,8.40921-3.24132,18.03438-4.2552,26.66629-1.40963,22.57773,7.44342,25.307,22.33,27.292,32.25437,1.98459,9.92449-3.2257,20.09643-9.9241,25.80312-6.69917,5.70668-22.18354,11.20363-38.06256-.20935a58.94412,58.94412,0,0,1-17.2657-19.14314c-3.35611-6.15014-6.38347-14.70693-5.12259-21.821A15.58248,15.58248,0,0,1,136.2075,76.814Z" style="fill:#c3202c"/><path d="M137.50851,77.61473c3.104-3.69391,7.80942-5.94915,12.64067-7.81176,8.20337-3.1616,17.59218-4.15065,26.01169-1.37449C198.185,75.68886,200.8468,90.21011,202.78258,99.891c1.93648,9.68078-3.14566,19.60261-9.68007,25.16937s-21.639,10.92876-37.128-.20436a57.498,57.498,0,0,1-16.84207-18.67306c-3.27333-5.99912-6.22682-14.34547-4.99679-21.28523A15.202,15.202,0,0,1,137.50851,77.61473Z" style="fill:#e11d37"/><path d="M138.80982,78.41543c3.02588-3.60083,7.61272-5.79937,12.32271-7.615,7.99635-3.08234,17.14911-4.04625,25.357-1.3403,21.46936,7.07782,24.06443,21.23338,25.9518,30.67062s-3.06712,19.10963-9.43683,24.53607c-6.37012,5.42643-21.09423,10.65382-36.19348-.199a56.04885,56.04885,0,0,1-16.41813-18.20328c-3.191-5.84819-6.07-13.98479-4.87093-20.74956A14.81776,14.81776,0,0,1,138.80982,78.41543Z" style="fill:#7e2778"/><path d="M171.01087,73.92239s1.56174,1.56212-3.64394,4.4252-11.19262,6.247-13.53524,12.49394-.78087,17.17917,0,20.30266-1.82177,5.72613-3.64393,5.20567c-3.36564-.96085-6.50935-8.01346-7.83738-10.72746-3.11661-6.37088-6.18825-16.8612-2.2621-23.60418,2.93278-5.03716,9.77424-7.93912,15.04513-9.39717C167.36693,69.23716,170.49,70.7989,171.01087,73.92239Z" style="fill:#7f3f98"/><path d="M158.64694,90.95053s6.98552-11.185,18.04274-11.56282c10.84412-.37023,16.915,6.31981,19.19773,12.725,2.314,6.49217,1.15264,12.757-2.78912,17.21275-4.01493,4.53843-8.9377,10.427-11.04051,13.82611-2.12827,3.44037-15.996,5.70482-23.44481-7.14216C151.31557,103.42277,158.64694,90.95053,158.64694,90.95053Z" style="fill:#3dbeb0"/><path d="M194.8408,98.905a17.4234,17.4234,0,0,0-1.05464-5.84514c-.98257-2.75671-5.11651-11.71759-17.08656-11.30889-9.76129.33358-16.10548,10.31414-16.168,10.414a25.72718,25.72718,0,0,0-2.92444,11.71042,21.34584,21.34584,0,0,0,2.91078,10.84716c4.50711,7.77632,11.21433,8.70516,13.889,8.74288,3.53828.05067,5.892-1.15757,6.43227-2.03152,2.40477-3.88757,8.15605-10.51389,10.5185-13.18252a13.879,13.879,0,0,0,3.48307-9.3464Z" style="fill:#7ccbb4"/><path d="M160.26014,101.874c2.0216,1.4931,3.52189-3.1723,6.69761-7.47662,3.17534-4.30313,6.8224-6.61373,4.802-8.10646-2.02042-1.492-6.23369.78657-9.40864,5.08972C159.17535,95.68347,158.23971,100.38205,160.26014,101.874Z" style="fill:#abdcd0"/><path d="M185.327,110.62335s3.90435-3.90436,5.4661-5.85654,1.95218-11.32263-7.02785-13.66525c-8.97814-2.34183-15.22434,3.12121-17.17769,8.1961-1.80155,4.67952-2.23048,10.1582.91815,14.35991,2.63123,3.51088,8.932,7.02558,12.74562,3.21275A39.667,39.667,0,0,0,185.327,110.62335Z" style="fill:#182c56"/><path d="M181.985,107.88076s2.89736-2.897,4.05609-4.34586c1.15874-1.44852,1.44852-8.402-5.2152-10.14032a10.46642,10.46642,0,0,0-12.74672,6.0819c-1.33678,3.47238-1.65521,7.538.68131,10.65616,1.95257,2.60531,6.62789,5.21333,9.45816,2.38377A29.42817,29.42817,0,0,0,181.985,107.88076Z" style="fill:#213a71"/></g></g></svg>